<mxfile host="app.diagrams.net" agent="Mozilla/5.0 (Windows NT 10.0; Win64; x64) AppleWebKit/537.36 (KHTML, like Gecko) Chrome/128.0.0.0 Safari/537.36" version="24.7.10">
  <diagram id="VrK_zfyN7fpBX6d-y2mq" name="Page-1">
    <mxGraphModel dx="1295" dy="1813" grid="1" gridSize="10" guides="1" tooltips="1" connect="1" arrows="1" fold="1" page="1" pageScale="1" pageWidth="827" pageHeight="1169" math="0" shadow="0">
      <root>
        <mxCell id="0" />
        <mxCell id="1" parent="0" />
        <mxCell id="Q9LAa7-C9dqeBuZHb-qN-1" value="&lt;span&gt;&lt;b&gt;&lt;font style=&quot;font-size: 14px;&quot;&gt;USER&lt;/font&gt;&lt;/b&gt;&lt;/span&gt;" style="shape=umlActor;verticalLabelPosition=bottom;verticalAlign=top;html=1;outlineConnect=0;fontStyle=0" parent="1" vertex="1">
          <mxGeometry x="90" y="-744.5" width="30" height="60" as="geometry" />
        </mxCell>
        <mxCell id="Q9LAa7-C9dqeBuZHb-qN-2" value="&lt;b&gt;&lt;font style=&quot;font-size: 14px;&quot;&gt;SYSTEM&lt;/font&gt;&lt;/b&gt;" style="shape=cube;whiteSpace=wrap;html=1;boundedLbl=1;backgroundOutline=1;darkOpacity=0.05;darkOpacity2=0.1;" parent="1" vertex="1">
          <mxGeometry x="640" y="-754.5" width="120" height="80" as="geometry" />
        </mxCell>
        <mxCell id="uI8mWZT3YUeGxljVmp1x-17" value="&lt;font style=&quot;font-size: 20px;&quot;&gt;&lt;b&gt;Use Case Diagram&lt;/b&gt;&lt;/font&gt;" style="text;html=1;align=center;verticalAlign=middle;whiteSpace=wrap;rounded=0;" parent="1" vertex="1">
          <mxGeometry x="50" y="-1090" width="200" height="30" as="geometry" />
        </mxCell>
        <mxCell id="uI8mWZT3YUeGxljVmp1x-18" value="" style="swimlane;startSize=0;" parent="1" vertex="1">
          <mxGeometry x="240" y="-969" width="280" height="459" as="geometry" />
        </mxCell>
        <mxCell id="uI8mWZT3YUeGxljVmp1x-4" value="LandMark Extraction" style="ellipse;whiteSpace=wrap;html=1;fontStyle=1" parent="uI8mWZT3YUeGxljVmp1x-18" vertex="1">
          <mxGeometry x="80" y="209.5" width="120" height="40" as="geometry" />
        </mxCell>
        <mxCell id="uI8mWZT3YUeGxljVmp1x-5" value="Calculating angles" style="ellipse;whiteSpace=wrap;html=1;fontStyle=1" parent="uI8mWZT3YUeGxljVmp1x-18" vertex="1">
          <mxGeometry x="80" y="259" width="120" height="40" as="geometry" />
        </mxCell>
        <mxCell id="uI8mWZT3YUeGxljVmp1x-6" value="Hand Detection" style="ellipse;whiteSpace=wrap;html=1;fontStyle=1" parent="uI8mWZT3YUeGxljVmp1x-18" vertex="1">
          <mxGeometry x="80" y="159.5" width="120" height="40" as="geometry" />
        </mxCell>
        <mxCell id="uI8mWZT3YUeGxljVmp1x-7" value="Model Predicting key" style="ellipse;whiteSpace=wrap;html=1;fontStyle=1" parent="uI8mWZT3YUeGxljVmp1x-18" vertex="1">
          <mxGeometry x="80" y="309" width="120" height="40" as="geometry" />
        </mxCell>
        <mxCell id="uI8mWZT3YUeGxljVmp1x-10" value="Display Recognized Characters" style="ellipse;whiteSpace=wrap;html=1;fontStyle=1" parent="uI8mWZT3YUeGxljVmp1x-18" vertex="1">
          <mxGeometry x="80" y="409" width="120" height="40" as="geometry" />
        </mxCell>
        <mxCell id="uI8mWZT3YUeGxljVmp1x-11" value="Frame Generation" style="ellipse;whiteSpace=wrap;html=1;fontStyle=1" parent="uI8mWZT3YUeGxljVmp1x-18" vertex="1">
          <mxGeometry x="80" y="109.5" width="120" height="40" as="geometry" />
        </mxCell>
        <mxCell id="uI8mWZT3YUeGxljVmp1x-13" value="Mapping key to OS" style="ellipse;whiteSpace=wrap;html=1;fontStyle=1" parent="uI8mWZT3YUeGxljVmp1x-18" vertex="1">
          <mxGeometry x="80" y="359" width="120" height="40" as="geometry" />
        </mxCell>
        <mxCell id="uI8mWZT3YUeGxljVmp1x-15" value="Video Capturing&amp;nbsp;" style="ellipse;whiteSpace=wrap;html=1;fontStyle=1" parent="uI8mWZT3YUeGxljVmp1x-18" vertex="1">
          <mxGeometry x="80" y="59.5" width="120" height="40" as="geometry" />
        </mxCell>
        <mxCell id="uI8mWZT3YUeGxljVmp1x-16" value="Typing on Surface" style="ellipse;whiteSpace=wrap;html=1;fontStyle=1" parent="uI8mWZT3YUeGxljVmp1x-18" vertex="1">
          <mxGeometry x="80" y="9.5" width="120" height="40" as="geometry" />
        </mxCell>
        <mxCell id="uI8mWZT3YUeGxljVmp1x-28" value="" style="endArrow=none;html=1;rounded=0;entryX=0;entryY=0.5;entryDx=0;entryDy=0;exitX=1;exitY=0.3333333333333333;exitDx=0;exitDy=0;exitPerimeter=0;" parent="1" source="Q9LAa7-C9dqeBuZHb-qN-1" target="uI8mWZT3YUeGxljVmp1x-16" edge="1">
          <mxGeometry width="50" height="50" relative="1" as="geometry">
            <mxPoint x="150" y="-680" as="sourcePoint" />
            <mxPoint x="200" y="-730" as="targetPoint" />
          </mxGeometry>
        </mxCell>
        <mxCell id="uI8mWZT3YUeGxljVmp1x-29" value="" style="endArrow=none;html=1;rounded=0;entryX=0;entryY=0;entryDx=0;entryDy=30;entryPerimeter=0;exitX=1;exitY=0.5;exitDx=0;exitDy=0;" parent="1" source="uI8mWZT3YUeGxljVmp1x-15" target="Q9LAa7-C9dqeBuZHb-qN-2" edge="1">
          <mxGeometry width="50" height="50" relative="1" as="geometry">
            <mxPoint x="350" y="-640" as="sourcePoint" />
            <mxPoint x="400" y="-690" as="targetPoint" />
          </mxGeometry>
        </mxCell>
        <mxCell id="uI8mWZT3YUeGxljVmp1x-30" value="" style="endArrow=none;html=1;rounded=0;entryX=0;entryY=0.5;entryDx=0;entryDy=0;exitX=1;exitY=0.3333333333333333;exitDx=0;exitDy=0;exitPerimeter=0;" parent="1" source="Q9LAa7-C9dqeBuZHb-qN-1" target="uI8mWZT3YUeGxljVmp1x-10" edge="1">
          <mxGeometry width="50" height="50" relative="1" as="geometry">
            <mxPoint x="140" y="-534" as="sourcePoint" />
            <mxPoint x="190" y="-584" as="targetPoint" />
          </mxGeometry>
        </mxCell>
        <mxCell id="uI8mWZT3YUeGxljVmp1x-31" value="" style="endArrow=none;html=1;rounded=0;entryX=1;entryY=0.5;entryDx=0;entryDy=0;exitX=0;exitY=0;exitDx=0;exitDy=30;exitPerimeter=0;" parent="1" source="Q9LAa7-C9dqeBuZHb-qN-2" target="uI8mWZT3YUeGxljVmp1x-7" edge="1">
          <mxGeometry width="50" height="50" relative="1" as="geometry">
            <mxPoint x="590" y="-640" as="sourcePoint" />
            <mxPoint x="640" y="-690" as="targetPoint" />
          </mxGeometry>
        </mxCell>
        <mxCell id="uI8mWZT3YUeGxljVmp1x-32" value="" style="endArrow=none;html=1;rounded=0;entryX=1;entryY=0.5;entryDx=0;entryDy=0;exitX=0;exitY=0;exitDx=0;exitDy=30;exitPerimeter=0;" parent="1" source="Q9LAa7-C9dqeBuZHb-qN-2" target="uI8mWZT3YUeGxljVmp1x-5" edge="1">
          <mxGeometry width="50" height="50" relative="1" as="geometry">
            <mxPoint x="630" y="-740" as="sourcePoint" />
            <mxPoint x="640" y="-690" as="targetPoint" />
          </mxGeometry>
        </mxCell>
        <mxCell id="uI8mWZT3YUeGxljVmp1x-34" value="" style="endArrow=none;html=1;rounded=0;entryX=1;entryY=0.5;entryDx=0;entryDy=0;exitX=0;exitY=0;exitDx=0;exitDy=30;exitPerimeter=0;" parent="1" source="Q9LAa7-C9dqeBuZHb-qN-2" target="uI8mWZT3YUeGxljVmp1x-4" edge="1">
          <mxGeometry width="50" height="50" relative="1" as="geometry">
            <mxPoint x="590" y="-640" as="sourcePoint" />
            <mxPoint x="640" y="-690" as="targetPoint" />
          </mxGeometry>
        </mxCell>
        <mxCell id="uI8mWZT3YUeGxljVmp1x-35" value="" style="endArrow=none;html=1;rounded=0;entryX=1;entryY=0.5;entryDx=0;entryDy=0;exitX=0;exitY=0;exitDx=0;exitDy=30;exitPerimeter=0;" parent="1" source="Q9LAa7-C9dqeBuZHb-qN-2" target="uI8mWZT3YUeGxljVmp1x-6" edge="1">
          <mxGeometry width="50" height="50" relative="1" as="geometry">
            <mxPoint x="630" y="-739" as="sourcePoint" />
            <mxPoint x="640" y="-690" as="targetPoint" />
          </mxGeometry>
        </mxCell>
        <mxCell id="uI8mWZT3YUeGxljVmp1x-36" value="" style="endArrow=none;html=1;rounded=0;entryX=1;entryY=0.5;entryDx=0;entryDy=0;exitX=0;exitY=0;exitDx=0;exitDy=30;exitPerimeter=0;" parent="1" source="Q9LAa7-C9dqeBuZHb-qN-2" target="uI8mWZT3YUeGxljVmp1x-11" edge="1">
          <mxGeometry width="50" height="50" relative="1" as="geometry">
            <mxPoint x="590" y="-640" as="sourcePoint" />
            <mxPoint x="640" y="-690" as="targetPoint" />
          </mxGeometry>
        </mxCell>
        <mxCell id="uI8mWZT3YUeGxljVmp1x-37" value="" style="endArrow=none;html=1;rounded=0;entryX=1;entryY=0.5;entryDx=0;entryDy=0;exitX=0;exitY=0;exitDx=0;exitDy=30;exitPerimeter=0;" parent="1" source="Q9LAa7-C9dqeBuZHb-qN-2" target="uI8mWZT3YUeGxljVmp1x-10" edge="1">
          <mxGeometry width="50" height="50" relative="1" as="geometry">
            <mxPoint x="650" y="-660" as="sourcePoint" />
            <mxPoint x="640" y="-690" as="targetPoint" />
          </mxGeometry>
        </mxCell>
        <mxCell id="uI8mWZT3YUeGxljVmp1x-38" value="" style="endArrow=none;html=1;rounded=0;entryX=1;entryY=0.5;entryDx=0;entryDy=0;exitX=0;exitY=0;exitDx=0;exitDy=30;exitPerimeter=0;" parent="1" source="Q9LAa7-C9dqeBuZHb-qN-2" target="uI8mWZT3YUeGxljVmp1x-13" edge="1">
          <mxGeometry width="50" height="50" relative="1" as="geometry">
            <mxPoint x="590" y="-640" as="sourcePoint" />
            <mxPoint x="640" y="-690" as="targetPoint" />
          </mxGeometry>
        </mxCell>
      </root>
    </mxGraphModel>
  </diagram>
</mxfile>
